<mxfile host="app.diagrams.net" agent="Mozilla/5.0 (Windows NT 10.0; Win64; x64) AppleWebKit/537.36 (KHTML, like Gecko) Chrome/129.0.0.0 Safari/537.36" version="24.7.17">
  <diagram name="Page-1" id="1O_l1LSTQ1KUoBh6PI4J">
    <mxGraphModel dx="1434" dy="780" grid="1" gridSize="10" guides="1" tooltips="1" connect="1" arrows="1" fold="1" page="1" pageScale="1" pageWidth="827" pageHeight="1169" math="0" shadow="0">
      <root>
        <mxCell id="0" />
        <mxCell id="1" parent="0" />
        <mxCell id="f3-JHHS59aKiWAJfFBb6-3" style="edgeStyle=orthogonalEdgeStyle;rounded=0;orthogonalLoop=1;jettySize=auto;html=1;exitX=0;exitY=1;exitDx=0;exitDy=0;exitPerimeter=0;" edge="1" parent="1">
          <mxGeometry relative="1" as="geometry">
            <mxPoint x="330" y="100" as="sourcePoint" />
            <mxPoint x="190" y="160" as="targetPoint" />
          </mxGeometry>
        </mxCell>
        <mxCell id="f3-JHHS59aKiWAJfFBb6-15" style="edgeStyle=orthogonalEdgeStyle;rounded=0;orthogonalLoop=1;jettySize=auto;html=1;exitX=1;exitY=1;exitDx=0;exitDy=0;exitPerimeter=0;entryX=0.5;entryY=0;entryDx=0;entryDy=0;" edge="1" parent="1">
          <mxGeometry relative="1" as="geometry">
            <mxPoint x="360" y="98" as="sourcePoint" />
            <mxPoint x="500" y="158" as="targetPoint" />
          </mxGeometry>
        </mxCell>
        <mxCell id="f3-JHHS59aKiWAJfFBb6-1" value="Actor" style="shape=umlActor;verticalLabelPosition=bottom;verticalAlign=top;html=1;outlineConnect=0;" vertex="1" parent="1">
          <mxGeometry x="330" y="40" width="30" height="60" as="geometry" />
        </mxCell>
        <mxCell id="f3-JHHS59aKiWAJfFBb6-7" style="edgeStyle=orthogonalEdgeStyle;rounded=0;orthogonalLoop=1;jettySize=auto;html=1;exitX=0;exitY=0.5;exitDx=0;exitDy=0;entryX=0.5;entryY=0;entryDx=0;entryDy=0;" edge="1" parent="1" source="f3-JHHS59aKiWAJfFBb6-2" target="f3-JHHS59aKiWAJfFBb6-6">
          <mxGeometry relative="1" as="geometry" />
        </mxCell>
        <mxCell id="f3-JHHS59aKiWAJfFBb6-12" style="edgeStyle=orthogonalEdgeStyle;rounded=0;orthogonalLoop=1;jettySize=auto;html=1;entryX=0;entryY=0.5;entryDx=0;entryDy=0;" edge="1" parent="1" source="f3-JHHS59aKiWAJfFBb6-2" target="f3-JHHS59aKiWAJfFBb6-11">
          <mxGeometry relative="1" as="geometry" />
        </mxCell>
        <mxCell id="f3-JHHS59aKiWAJfFBb6-2" value="Форма для создания нового проекта" style="rounded=0;whiteSpace=wrap;html=1;" vertex="1" parent="1">
          <mxGeometry x="130" y="160" width="120" height="60" as="geometry" />
        </mxCell>
        <mxCell id="f3-JHHS59aKiWAJfFBb6-4" value="Ввод данных" style="text;html=1;align=center;verticalAlign=middle;resizable=0;points=[];autosize=1;strokeColor=none;fillColor=none;" vertex="1" parent="1">
          <mxGeometry x="210" y="70" width="100" height="30" as="geometry" />
        </mxCell>
        <mxCell id="f3-JHHS59aKiWAJfFBb6-9" style="edgeStyle=orthogonalEdgeStyle;rounded=0;orthogonalLoop=1;jettySize=auto;html=1;entryX=1;entryY=0.5;entryDx=0;entryDy=0;" edge="1" parent="1" source="f3-JHHS59aKiWAJfFBb6-6" target="f3-JHHS59aKiWAJfFBb6-2">
          <mxGeometry relative="1" as="geometry">
            <Array as="points">
              <mxPoint x="270" y="370" />
              <mxPoint x="270" y="190" />
            </Array>
          </mxGeometry>
        </mxCell>
        <mxCell id="f3-JHHS59aKiWAJfFBb6-6" value="Алгоритм подбора&lt;br&gt;длины и кол-ва" style="rounded=0;whiteSpace=wrap;html=1;" vertex="1" parent="1">
          <mxGeometry x="120" y="340" width="120" height="60" as="geometry" />
        </mxCell>
        <mxCell id="f3-JHHS59aKiWAJfFBb6-8" value="Передача параметров" style="text;html=1;align=center;verticalAlign=middle;resizable=0;points=[];autosize=1;strokeColor=none;fillColor=none;" vertex="1" parent="1">
          <mxGeometry x="105" y="248" width="150" height="30" as="geometry" />
        </mxCell>
        <mxCell id="f3-JHHS59aKiWAJfFBb6-10" value="Возвращает длину и кол-во" style="text;html=1;align=center;verticalAlign=middle;resizable=0;points=[];autosize=1;strokeColor=none;fillColor=none;" vertex="1" parent="1">
          <mxGeometry x="270" y="268" width="180" height="30" as="geometry" />
        </mxCell>
        <mxCell id="f3-JHHS59aKiWAJfFBb6-17" style="edgeStyle=orthogonalEdgeStyle;rounded=0;orthogonalLoop=1;jettySize=auto;html=1;exitX=1;exitY=0.5;exitDx=0;exitDy=0;" edge="1" parent="1" source="f3-JHHS59aKiWAJfFBb6-11" target="f3-JHHS59aKiWAJfFBb6-1">
          <mxGeometry relative="1" as="geometry">
            <Array as="points">
              <mxPoint x="630" y="190" />
              <mxPoint x="630" y="60" />
            </Array>
          </mxGeometry>
        </mxCell>
        <mxCell id="f3-JHHS59aKiWAJfFBb6-11" value="Редактор мата" style="rounded=0;whiteSpace=wrap;html=1;" vertex="1" parent="1">
          <mxGeometry x="440" y="160" width="120" height="60" as="geometry" />
        </mxCell>
        <mxCell id="f3-JHHS59aKiWAJfFBb6-13" value="Создание нового проекта" style="text;html=1;align=center;verticalAlign=middle;resizable=0;points=[];autosize=1;strokeColor=none;fillColor=none;" vertex="1" parent="1">
          <mxGeometry x="260" y="158" width="170" height="30" as="geometry" />
        </mxCell>
        <mxCell id="f3-JHHS59aKiWAJfFBb6-16" value="Загружает ранее сохраненный проект" style="text;html=1;align=center;verticalAlign=middle;resizable=0;points=[];autosize=1;strokeColor=none;fillColor=none;" vertex="1" parent="1">
          <mxGeometry x="360" y="70" width="240" height="30" as="geometry" />
        </mxCell>
        <mxCell id="f3-JHHS59aKiWAJfFBb6-18" value="Возвращает сохранение проекта" style="text;html=1;align=center;verticalAlign=middle;resizable=0;points=[];autosize=1;strokeColor=none;fillColor=none;" vertex="1" parent="1">
          <mxGeometry x="395" y="28" width="210" height="30" as="geometry" />
        </mxCell>
      </root>
    </mxGraphModel>
  </diagram>
</mxfile>
